<mxfile host="app.diagrams.net" modified="2021-02-03T02:46:11.701Z" agent="5.0 (Windows NT 10.0; Win64; x64) AppleWebKit/537.36 (KHTML, like Gecko) Chrome/88.0.4324.104 Safari/537.36" etag="Oku7rL6H1uggyA0Y1UEM" version="14.2.6" type="github">
  <diagram id="D6VwYkbPqEPIQRJvLvpo" name="Page-1">
    <mxGraphModel dx="1662" dy="804" grid="1" gridSize="10" guides="1" tooltips="1" connect="1" arrows="1" fold="1" page="1" pageScale="1" pageWidth="827" pageHeight="1169" math="0" shadow="0">
      <root>
        <mxCell id="0" />
        <mxCell id="1" parent="0" />
        <mxCell id="2NI7VfmTNH_zAXMl5-c3-3" value="master" style="rounded=1;whiteSpace=wrap;html=1;strokeColor=#EA6B66;" vertex="1" parent="1">
          <mxGeometry x="80" y="160" width="70" height="380" as="geometry" />
        </mxCell>
        <mxCell id="2NI7VfmTNH_zAXMl5-c3-10" style="edgeStyle=none;rounded=0;orthogonalLoop=1;jettySize=auto;html=1;exitX=0;exitY=0.5;exitDx=0;exitDy=0;entryX=1.014;entryY=0.332;entryDx=0;entryDy=0;entryPerimeter=0;" edge="1" parent="1">
          <mxGeometry relative="1" as="geometry">
            <mxPoint x="150.98000000000002" y="231.16000000000008" as="targetPoint" />
            <mxPoint x="440" y="231" as="sourcePoint" />
          </mxGeometry>
        </mxCell>
        <mxCell id="2NI7VfmTNH_zAXMl5-c3-4" value="slave" style="rounded=1;whiteSpace=wrap;html=1;strokeColor=#EA6B66;" vertex="1" parent="1">
          <mxGeometry x="440" y="160" width="70" height="380" as="geometry" />
        </mxCell>
        <mxCell id="2NI7VfmTNH_zAXMl5-c3-8" style="edgeStyle=none;rounded=0;orthogonalLoop=1;jettySize=auto;html=1;exitX=0;exitY=1;exitDx=0;exitDy=0;" edge="1" parent="1" source="2NI7VfmTNH_zAXMl5-c3-5">
          <mxGeometry relative="1" as="geometry">
            <mxPoint x="520" y="160" as="targetPoint" />
          </mxGeometry>
        </mxCell>
        <mxCell id="2NI7VfmTNH_zAXMl5-c3-5" value="&lt;b&gt;user&lt;/b&gt;" style="text;html=1;strokeColor=none;fillColor=none;align=center;verticalAlign=middle;whiteSpace=wrap;rounded=0;" vertex="1" parent="1">
          <mxGeometry x="690" y="90" width="30" height="20" as="geometry" />
        </mxCell>
        <mxCell id="2NI7VfmTNH_zAXMl5-c3-9" value="&lt;b&gt;start&amp;nbsp; innodb slave&lt;/b&gt;" style="text;html=1;strokeColor=none;fillColor=none;align=center;verticalAlign=middle;whiteSpace=wrap;rounded=0;shadow=1;" vertex="1" parent="1">
          <mxGeometry x="510" y="70" width="136" height="20" as="geometry" />
        </mxCell>
        <mxCell id="2NI7VfmTNH_zAXMl5-c3-11" value="&lt;b&gt;register slave in master&lt;/b&gt;" style="text;html=1;strokeColor=none;fillColor=none;align=center;verticalAlign=middle;whiteSpace=wrap;rounded=0;shadow=1;" vertex="1" parent="1">
          <mxGeometry x="230" y="190" width="140" height="20" as="geometry" />
        </mxCell>
        <mxCell id="2NI7VfmTNH_zAXMl5-c3-12" style="edgeStyle=none;rounded=0;orthogonalLoop=1;jettySize=auto;html=1;exitX=0;exitY=0.5;exitDx=0;exitDy=0;entryX=1.014;entryY=0.332;entryDx=0;entryDy=0;entryPerimeter=0;" edge="1" parent="1">
          <mxGeometry relative="1" as="geometry">
            <mxPoint x="150.98000000000002" y="281.1600000000001" as="targetPoint" />
            <mxPoint x="440" y="281" as="sourcePoint" />
          </mxGeometry>
        </mxCell>
        <mxCell id="2NI7VfmTNH_zAXMl5-c3-13" value="&lt;b&gt;regist slave in master&lt;/b&gt;" style="text;html=1;strokeColor=none;fillColor=none;align=center;verticalAlign=middle;whiteSpace=wrap;rounded=0;shadow=1;" vertex="1" parent="1">
          <mxGeometry x="230" y="250" width="140" height="20" as="geometry" />
        </mxCell>
      </root>
    </mxGraphModel>
  </diagram>
</mxfile>
